<svg xmlns="http://www.w3.org/2000/svg" viewBox="0 0 600 600" role="img" aria-label="Imagen de producto pendiente">
  <rect width="600" height="600" fill="#000000"></rect>
  <g fill="none" stroke="#222222" stroke-width="1.4">
    <rect x="40" y="40" width="520" height="520" stroke-dasharray="4 6"></rect>
  </g>
  
  <g fill="none" stroke="#333333" stroke-width="2" stroke-linejoin="round" stroke-linecap="round" opacity="0.7">
    <path d="M 130 360 C 140 320, 170 290, 220 280 L 380 250 C 440 240, 480 250, 480 290 L 480 340 C 480 360, 460 370, 420 372 L 180 388 C 150 388, 130 380, 130 360 Z"></path>
    <path d="M 130 380 L 480 372"></path>
    <g><circle cx="170" cy="420" r="5"></circle><circle cx="230" cy="424" r="5"></circle><circle cx="290" cy="425" r="5"></circle><circle cx="350" cy="422" r="5"></circle><circle cx="410" cy="418" r="5"></circle><circle cx="460" cy="412" r="5"></circle></g>
  </g>
  <g font-family="&#39;Inter&#39;,&#39;Helvetica Neue&#39;,Arial,sans-serif" fill="#555555" text-anchor="middle">
    <text x="300" y="495" font-size="11" font-weight="600" letter-spacing="3">PLACEHOLDER</text>
    <text x="300" y="520" font-size="14" font-weight="500" fill="#888">Imagen pendiente · 1080×1350</text>
  </g>
</svg>